<svg width="60.444" xmlns="http://www.w3.org/2000/svg" height="60" id="screenshot-2e89195a-2133-80e3-8004-c4b7f5dd59d0" viewBox="578 335 60.444 60" style="-webkit-print-color-adjust::exact" xmlns:xlink="http://www.w3.org/1999/xlink" fill="none" version="1.1">
  <g id="shape-2e89195a-2133-80e3-8004-c4b7f5dd59d0" data-testid="svg-g" style="fill:#000000" clip-path="url(#render-31701-a)" rx="0" ry="0">
    <defs>
      <clipPath id="render-31701-a" class="svg-def" transform="matrix(0.755556, 0.000000, 0.000000, 0.750000, 578.000000, 335.000000)">
        <rect width="80" height="80" fill="#fff">
        </rect>
      </clipPath>
    </defs>
    <g id="shape-2e89195a-2133-80e3-8004-c4b7f5dd59d1" data-testid="svg-path">
      <g class="fills" id="fills-2e89195a-2133-80e3-8004-c4b7f5dd59d1">
        <path d="M608.222,395.000C624.914,395.000,638.444,381.569,638.444,365.000C638.444,348.431,624.914,335.000,608.222,335.000C591.531,335.000,578.000,348.431,578.000,365.000C578.000,381.569,591.531,395.000,608.222,395.000ZZ" style="fill:#49e79b;fill-opacity:1">
        </path>
      </g>
    </g>
    <g id="shape-2e89195a-2133-80e3-8004-c4b7f5dd59d2" data-testid="svg-path">
      <g class="fills" id="fills-2e89195a-2133-80e3-8004-c4b7f5dd59d2">
        <path d="M589.393,351.125C593.559,354.646,596.906,359.022,599.201,363.953C601.496,368.884,602.684,374.250,602.684,379.681" fill="none" style="fill:none">
        </path>
      </g>
      <g fill="none" id="strokes-2e89195a-2133-80e3-8004-c4b7f5dd59d2" class="strokes">
        <g class="stroke-shape">
          <path d="M589.393,351.125C593.559,354.646,596.906,359.022,599.201,363.953C601.496,368.884,602.684,374.250,602.684,379.681" style="fill:none;fill-opacity:none;stroke-width:2.825;stroke:#ffffff;stroke-opacity:1">
          </path>
        </g>
      </g>
    </g>
    <g id="shape-2e89195a-2133-80e3-8004-c4b7f5ddbea4" data-testid="svg-path">
      <g class="fills" id="fills-2e89195a-2133-80e3-8004-c4b7f5ddbea4">
        <path d="M627.515,351.125C623.348,354.646,620.002,359.022,617.707,363.953C615.412,368.884,614.224,374.250,614.224,379.681" fill="none" style="fill:none">
        </path>
      </g>
      <g fill="none" id="strokes-2e89195a-2133-80e3-8004-c4b7f5ddbea4" class="strokes">
        <g class="stroke-shape">
          <path d="M627.515,351.125C623.348,354.646,620.002,359.022,617.707,363.953C615.412,368.884,614.224,374.250,614.224,379.681" style="fill:none;fill-opacity:none;stroke-width:2.825;stroke:#ffffff;stroke-opacity:1">
          </path>
        </g>
      </g>
    </g>
    <g id="shape-2e89195a-2133-80e3-8004-c4b7f5ddbea5" data-testid="svg-path">
      <g class="fills" id="fills-2e89195a-2133-80e3-8004-c4b7f5ddbea5">
        <path d="M602.406,375.054C606.339,373.695,610.615,373.665,614.567,374.969" fill="none" style="fill:none">
        </path>
      </g>
      <g fill="none" id="strokes-2e89195a-2133-80e3-8004-c4b7f5ddbea5" class="strokes">
        <g class="stroke-shape">
          <path d="M602.406,375.054C606.339,373.695,610.615,373.665,614.567,374.969" style="fill:none;fill-opacity:none;stroke-width:2.825;stroke:#ffffff;stroke-opacity:1">
          </path>
        </g>
      </g>
    </g>
    <g id="shape-2e89195a-2133-80e3-8004-c4b7f5ddbea6" data-testid="svg-path">
      <g class="fills" id="fills-2e89195a-2133-80e3-8004-c4b7f5ddbea6">
        <path d="M601.656,370.877C606.030,369.157,610.893,369.119,615.294,370.771" fill="none" style="fill:none">
        </path>
      </g>
      <g fill="none" id="strokes-2e89195a-2133-80e3-8004-c4b7f5ddbea6" class="strokes">
        <g class="stroke-shape">
          <path d="M601.656,370.877C606.030,369.157,610.893,369.119,615.294,370.771" style="fill:none;fill-opacity:none;stroke-width:2.825;stroke:#ffffff;stroke-opacity:1">
          </path>
        </g>
      </g>
    </g>
    <g id="shape-2e89195a-2133-80e3-8004-c4b7f5ddbea7" data-testid="svg-path">
      <g class="fills" id="fills-2e89195a-2133-80e3-8004-c4b7f5ddbea7">
        <path d="M600.324,367.007C602.840,365.787,605.598,365.138,608.398,365.107C611.198,365.075,613.970,365.662,616.513,366.824" fill="none" style="fill:none">
        </path>
      </g>
      <g fill="none" id="strokes-2e89195a-2133-80e3-8004-c4b7f5ddbea7" class="strokes">
        <g class="stroke-shape">
          <path d="M600.324,367.007C602.840,365.787,605.598,365.138,608.398,365.107C611.198,365.075,613.970,365.662,616.513,366.824" style="fill:none;fill-opacity:none;stroke-width:2.825;stroke:#ffffff;stroke-opacity:1">
          </path>
        </g>
      </g>
    </g>
  </g>
</svg>