<svg width="52.236" xmlns="http://www.w3.org/2000/svg" height="52.236" id="screenshot-b005493b-8aae-80ff-8004-c7edc5909708" viewBox="1258 1502.81 52.236 52.236" style="-webkit-print-color-adjust::exact" xmlns:xlink="http://www.w3.org/1999/xlink" fill="none" version="1.1">
  <g id="shape-b005493b-8aae-80ff-8004-c7edc5909708" data-testid="sound-svgrepo-com" style="fill:#000000" width="800" height="800" rx="0" ry="0">
    <g id="shape-b005493b-8aae-80ff-8004-c7edc5913b78" data-testid="base-background">
      <g class="fills" id="fills-b005493b-8aae-80ff-8004-c7edc5913b78">
        <rect rx="0" ry="0" x="1270.2439294356627" y="1520.6365268131894" transform="matrix(0.924353, -0.381537, 0.381537, 0.924353, -488.207541, 606.828236)" width="31.952646487377933" height="27.9182846656563" fill="none" style="fill:none">
        </rect>
      </g>
    </g>
    <g id="shape-b005493b-8aae-80ff-8004-c7edc5915088" data-testid="svg-g" style="fill:#000000" rx="0" ry="0">
      <g id="shape-b005493b-8aae-80ff-8004-c7edc591c9f6" data-testid="svg-path">
        <g class="fills" id="fills-b005493b-8aae-80ff-8004-c7edc591c9f6">
          <path d="M1291.410,1515.412C1290.810,1516.618,1289.291,1517.245,1288.015,1516.813C1286.740,1516.381,1286.192,1515.053,1286.791,1513.847L1291.130,1505.116C1291.729,1503.910,1293.249,1503.283,1294.525,1503.715C1295.800,1504.147,1296.348,1505.475,1295.749,1506.681ZM1289.812,1542.751L1277.241,1538.492L1270.312,1541.352C1269.700,1541.605,1269.024,1541.635,1268.435,1541.436C1267.846,1541.236,1267.390,1540.823,1267.170,1540.288L1262.172,1528.179C1261.951,1527.644,1261.982,1527.030,1262.259,1526.473C1262.536,1525.915,1263.036,1525.460,1263.649,1525.208L1270.578,1522.348L1276.484,1510.462C1276.484,1510.462,1278.690,1509.256,1279.627,1511.527L1291.288,1539.780C1292.226,1542.050,1289.812,1542.751,1289.812,1542.751ZZM1277.506,1519.488L1274.553,1525.431L1267.624,1528.291L1270.955,1536.363L1277.885,1533.503L1284.170,1535.632ZM1293.220,1524.811C1291.944,1525.338,1290.537,1524.861,1290.077,1523.747C1289.617,1522.632,1290.278,1521.302,1291.554,1520.775L1298.483,1517.915C1299.758,1517.389,1301.165,1517.865,1301.625,1518.980C1302.085,1520.094,1301.424,1521.425,1300.149,1521.951ZM1296.900,1528.715L1306.135,1531.843C1307.403,1532.280,1307.945,1533.604,1307.348,1534.805C1306.750,1536.007,1305.239,1536.635,1303.965,1536.210L1294.730,1533.082C1293.455,1532.650,1292.907,1531.322,1293.506,1530.116C1294.105,1528.910,1295.625,1528.282,1296.900,1528.715ZZ" fill-rule="evenodd" style="fill:#818181;fill-opacity:1">
          </path>
        </g>
      </g>
    </g>
  </g>
</svg>