<svg width="72" xmlns="http://www.w3.org/2000/svg" height="72" id="screenshot-6d875993-3d80-8077-8004-c7f1fcb82144" viewBox="1246 1676.19 72 72" style="-webkit-print-color-adjust::exact" xmlns:xlink="http://www.w3.org/1999/xlink" fill="none" version="1.1">
  <g id="shape-6d875993-3d80-8077-8004-c7f1fcb82144" data-testid="cellphone-svgrepo-com" style="fill:#000000" width="800" height="800" xml:space="preserve" rx="0" ry="0">
    <g id="shape-6d875993-3d80-8077-8004-c7f1fcb8e4ae" data-testid="base-background" style="display:none">
      <g class="fills" id="fills-6d875993-3d80-8077-8004-c7f1fcb8e4ae">
        <rect rx="0" ry="0" x="1246" y="1676.1895688779666" transform="matrix(1.000000, 0.000000, 0.000000, 1.000000, 0.000000, 0.000000)" width="72" height="72" fill="none" style="fill:#818181;fill-opacity:1">
        </rect>
      </g>
    </g>
    <g id="shape-6d875993-3d80-8077-8004-c7f1fcb90938" data-testid="svg-path">
      <g class="fills" id="fills-6d875993-3d80-8077-8004-c7f1fcb90938">
        <path d="M1297.840,1692.893C1297.840,1690.428,1295.841,1688.430,1293.376,1688.430L1271.344,1688.430C1268.879,1688.430,1266.880,1690.428,1266.880,1692.893L1266.880,1732.926C1266.880,1735.392,1268.879,1737.390,1271.344,1737.390L1293.376,1737.390C1295.841,1737.390,1297.840,1735.392,1297.840,1732.926L1297.840,1692.893ZZM1294.960,1732.926C1294.960,1733.801,1294.251,1734.510,1293.376,1734.510L1271.344,1734.510C1270.469,1734.510,1269.760,1733.801,1269.760,1732.926L1269.760,1692.893C1269.760,1692.019,1270.469,1691.310,1271.344,1691.310L1293.376,1691.310C1294.251,1691.310,1294.960,1692.019,1294.960,1692.893L1294.960,1732.926ZZ" style="fill:#818181;fill-opacity:1">
        </path>
      </g>
    </g>
    <g id="shape-6d875993-3d80-8077-8004-c7f1fcb99c6e" data-testid="svg-path">
      <g class="fills" id="fills-6d875993-3d80-8077-8004-c7f1fcb99c6e">
        <path d="M1292.800,1694.910C1292.800,1694.115,1292.155,1693.470,1291.360,1693.470L1273.360,1693.470C1272.565,1693.470,1271.920,1694.115,1271.920,1694.910L1271.920,1725.150C1271.920,1725.944,1272.565,1726.590,1273.360,1726.590L1291.360,1726.590C1292.155,1726.590,1292.800,1725.944,1292.800,1725.150L1292.800,1694.910ZZM1274.800,1696.350L1289.920,1696.350L1289.920,1723.710L1274.800,1723.710L1274.800,1696.350ZZ" style="fill:#818181;fill-opacity:1">
        </path>
      </g>
    </g>
    <g id="shape-6d875993-3d80-8077-8004-c7f1fcb99c6f" data-testid="svg-circle">
      <g class="fills" id="fills-6d875993-3d80-8077-8004-c7f1fcb99c6f">
        <ellipse cx="1282.24552" cy="1730.1917288779669" rx="2.487600000000043" ry="2.4875999999999294" transform="matrix(1.000000, 0.000000, 0.000000, 1.000000, 0.000000, 0.000000)" style="fill:#818181;fill-opacity:1">
        </ellipse>
      </g>
    </g>
  </g>
</svg>