<svg width="48" xmlns="http://www.w3.org/2000/svg" height="48" id="screenshot-6d875993-3d80-8077-8004-c7f106276f2e" viewBox="1261 1591.19 48 48" style="-webkit-print-color-adjust::exact" xmlns:xlink="http://www.w3.org/1999/xlink" fill="none" version="1.1">
  <g id="shape-6d875993-3d80-8077-8004-c7f106276f2e" data-testid="hand-raise-svgrepo-com" style="fill:#000000" width="800" height="800" rx="0" ry="0">
    <g id="shape-6d875993-3d80-8077-8004-c7f106280000" data-testid="base-background" style="display:none">
      <g class="fills" id="fills-6d875993-3d80-8077-8004-c7f106280000">
        <rect rx="0" ry="0" x="1261" y="1591.1895688779666" transform="matrix(1.000000, 0.000000, 0.000000, 1.000000, 0.000000, 0.000000)" width="48" height="48" fill="none" style="fill:none">
        </rect>
      </g>
    </g>
    <g id="shape-6d875993-3d80-8077-8004-c7f10628fac0" data-testid="svg-path">
      <g class="fills" id="fills-6d875993-3d80-8077-8004-c7f10628fac0">
        <path d="M1283.995,1595.184C1285.720,1595.182,1287.071,1596.209,1287.666,1597.587L1287.774,1597.868L1288.060,1597.789C1288.254,1597.743,1288.454,1597.712,1288.660,1597.695L1288.973,1597.681L1289.277,1597.691C1291.276,1597.834,1292.837,1599.487,1292.988,1601.388L1293.000,1601.690L1293.000,1613.706C1293.770,1613.283,1294.698,1612.898,1295.736,1612.716C1297.237,1612.453,1298.970,1612.543,1300.402,1613.282C1301.937,1614.075,1303.000,1615.566,1303.000,1617.690C1303.000,1618.094,1302.837,1618.478,1302.553,1618.758L1302.401,1618.889L1298.486,1621.832L1294.210,1626.104C1292.569,1627.743,1291.204,1629.636,1290.168,1631.710C1289.160,1633.726,1287.159,1635.040,1284.930,1635.180L1284.534,1635.192L1279.079,1635.192C1276.996,1635.192,1274.949,1634.185,1273.836,1632.279C1272.414,1629.842,1270.221,1625.497,1270.016,1621.322L1270.000,1620.697L1270.000,1605.190C1270.000,1603.108,1271.664,1601.189,1274.002,1601.189C1274.360,1601.189,1274.703,1601.234,1275.026,1601.318C1275.207,1599.393,1276.783,1597.681,1279.000,1597.681C1279.434,1597.681,1279.844,1597.747,1280.224,1597.866C1280.751,1596.356,1282.163,1595.185,1283.995,1595.184ZZM1283.997,1598.184C1283.424,1598.184,1283.000,1598.638,1283.000,1599.183L1283.000,1611.688L1282.986,1611.892C1282.887,1612.624,1282.259,1613.190,1281.500,1613.190C1280.741,1613.190,1280.113,1612.625,1280.014,1611.893L1280.000,1611.690L1280.000,1601.690C1280.000,1601.133,1279.574,1600.681,1279.000,1600.681C1278.437,1600.681,1278.008,1601.133,1278.008,1601.690L1278.008,1612.680L1277.994,1612.883C1277.895,1613.616,1277.268,1614.180,1276.508,1614.180C1275.749,1614.180,1275.121,1613.616,1275.022,1612.884L1275.008,1612.680L1275.008,1605.190C1275.008,1604.651,1274.580,1604.189,1274.002,1604.189C1273.430,1604.189,1273.000,1604.653,1273.000,1605.190L1273.000,1620.697C1273.000,1624.190,1274.956,1628.246,1276.427,1630.766C1276.941,1631.647,1277.935,1632.192,1279.079,1632.192L1284.534,1632.192C1285.784,1632.192,1286.926,1631.486,1287.484,1630.369C1288.665,1628.006,1290.220,1625.849,1292.089,1623.982L1296.440,1619.636C1296.490,1619.586,1296.543,1619.540,1296.599,1619.498L1299.915,1617.004C1299.769,1616.478,1299.442,1616.163,1299.025,1615.948C1298.347,1615.598,1297.328,1615.483,1296.254,1615.671C1295.266,1615.844,1294.352,1616.337,1293.648,1616.835C1293.304,1617.079,1293.030,1617.310,1292.845,1617.476L1292.590,1617.720C1292.169,1618.166,1291.519,1618.310,1290.948,1618.084C1290.376,1617.858,1290.000,1617.305,1290.000,1616.690L1290.000,1601.690C1290.000,1601.171,1289.517,1600.678,1288.992,1600.681C1288.405,1600.685,1287.996,1601.158,1287.996,1601.636L1287.996,1611.688L1287.983,1611.892C1287.883,1612.624,1287.256,1613.190,1286.496,1613.190C1285.737,1613.190,1285.109,1612.625,1285.010,1611.893L1284.996,1611.690L1284.996,1599.183C1284.996,1598.630,1284.578,1598.183,1283.997,1598.184ZZ" fill-rule="nonzero" style="fill:#818181;fill-opacity:1">
        </path>
      </g>
    </g>
  </g>
</svg>